<mxfile host="app.diagrams.net" modified="2022-03-22T17:20:01.489Z" agent="5.0 (Windows)" etag="Mf4BR40KopPtR2a5kssL" version="16.1.4" type="github">
  <diagram id="daizogGD3AeSkCne1F2X" name="Page-3">
    <mxGraphModel dx="1262" dy="736" grid="1" gridSize="10" guides="1" tooltips="1" connect="1" arrows="1" fold="1" page="1" pageScale="1" pageWidth="1169" pageHeight="827" background="#283618" math="0" shadow="0">
      <root>
        <mxCell id="ATTF58zO77-h0KhkHWtb-0" />
        <mxCell id="ATTF58zO77-h0KhkHWtb-1" parent="ATTF58zO77-h0KhkHWtb-0" />
        <mxCell id="36k0eRTxnHQfR-YIVAF0-30" style="edgeStyle=orthogonalEdgeStyle;curved=1;rounded=0;orthogonalLoop=1;jettySize=auto;html=1;exitX=0.5;exitY=0;exitDx=0;exitDy=0;entryX=0.5;entryY=1;entryDx=0;entryDy=0;fontColor=#FFFFFF;startArrow=classic;startFill=1;strokeColor=#FFB570;labelBackgroundColor=#BC6C25;" parent="ATTF58zO77-h0KhkHWtb-1" source="36k0eRTxnHQfR-YIVAF0-26" target="ATTF58zO77-h0KhkHWtb-2" edge="1">
          <mxGeometry relative="1" as="geometry" />
        </mxCell>
        <mxCell id="36k0eRTxnHQfR-YIVAF0-33" value="I2C" style="edgeLabel;html=1;align=center;verticalAlign=middle;resizable=0;points=[];fontColor=#FFFFFF;labelBackgroundColor=none;" parent="36k0eRTxnHQfR-YIVAF0-30" vertex="1" connectable="0">
          <mxGeometry x="0.2632" y="-1" relative="1" as="geometry">
            <mxPoint x="9" y="4" as="offset" />
          </mxGeometry>
        </mxCell>
        <mxCell id="36k0eRTxnHQfR-YIVAF0-31" style="edgeStyle=orthogonalEdgeStyle;curved=1;rounded=0;orthogonalLoop=1;jettySize=auto;html=1;exitX=0.75;exitY=0;exitDx=0;exitDy=0;entryX=0.75;entryY=1;entryDx=0;entryDy=0;fontColor=#FFFFFF;startArrow=none;startFill=0;strokeColor=#FFB570;" parent="ATTF58zO77-h0KhkHWtb-1" source="36k0eRTxnHQfR-YIVAF0-26" target="ATTF58zO77-h0KhkHWtb-2" edge="1">
          <mxGeometry relative="1" as="geometry" />
        </mxCell>
        <mxCell id="36k0eRTxnHQfR-YIVAF0-32" value="&lt;span style=&quot;&quot;&gt;Power&lt;/span&gt;" style="edgeLabel;html=1;align=center;verticalAlign=middle;resizable=0;points=[];fontColor=#FFFFFF;labelBackgroundColor=none;" parent="36k0eRTxnHQfR-YIVAF0-31" vertex="1" connectable="0">
          <mxGeometry x="-0.1899" y="2" relative="1" as="geometry">
            <mxPoint x="25" y="-4" as="offset" />
          </mxGeometry>
        </mxCell>
        <mxCell id="36k0eRTxnHQfR-YIVAF0-26" value="" style="rounded=1;whiteSpace=wrap;html=1;sketch=0;fontColor=#FEFAE0;strokeColor=#DDA15E;fillColor=#BC6C25;" parent="ATTF58zO77-h0KhkHWtb-1" vertex="1">
          <mxGeometry x="230" y="414" width="500" height="276" as="geometry" />
        </mxCell>
        <mxCell id="36k0eRTxnHQfR-YIVAF0-6" value="" style="rounded=1;whiteSpace=wrap;html=1;fillColor=#BC6C25;strokeColor=#d79b00;" parent="ATTF58zO77-h0KhkHWtb-1" vertex="1">
          <mxGeometry x="240" y="430" width="360" height="240" as="geometry" />
        </mxCell>
        <mxCell id="36k0eRTxnHQfR-YIVAF0-16" style="edgeStyle=orthogonalEdgeStyle;curved=1;rounded=0;orthogonalLoop=1;jettySize=auto;html=1;exitX=1;exitY=0.75;exitDx=0;exitDy=0;fontColor=#FFFFFF;startArrow=none;startFill=0;strokeColor=#FFB570;" parent="ATTF58zO77-h0KhkHWtb-1" source="36k0eRTxnHQfR-YIVAF0-9" edge="1">
          <mxGeometry relative="1" as="geometry">
            <mxPoint x="420" y="495" as="targetPoint" />
          </mxGeometry>
        </mxCell>
        <mxCell id="36k0eRTxnHQfR-YIVAF0-17" style="edgeStyle=orthogonalEdgeStyle;curved=1;rounded=0;orthogonalLoop=1;jettySize=auto;html=1;exitX=1;exitY=0.25;exitDx=0;exitDy=0;fontColor=#FFFFFF;startArrow=none;startFill=0;strokeColor=#FFB570;entryX=1;entryY=0.25;entryDx=0;entryDy=0;" parent="ATTF58zO77-h0KhkHWtb-1" target="36k0eRTxnHQfR-YIVAF0-9" edge="1">
          <mxGeometry relative="1" as="geometry">
            <mxPoint x="420" y="465" as="sourcePoint" />
          </mxGeometry>
        </mxCell>
        <mxCell id="36k0eRTxnHQfR-YIVAF0-9" value="&lt;div&gt;Temperature&lt;/div&gt;&lt;div&gt;Sensor&lt;br&gt;&lt;/div&gt;" style="rounded=1;whiteSpace=wrap;html=1;sketch=0;fontColor=#FEFAE0;strokeColor=#DDA15E;fillColor=#BC6C25;" parent="ATTF58zO77-h0KhkHWtb-1" vertex="1">
          <mxGeometry x="260" y="450" width="120" height="60" as="geometry" />
        </mxCell>
        <mxCell id="36k0eRTxnHQfR-YIVAF0-18" style="edgeStyle=orthogonalEdgeStyle;curved=1;rounded=0;orthogonalLoop=1;jettySize=auto;html=1;exitX=1;exitY=0.25;exitDx=0;exitDy=0;fontColor=#FFFFFF;startArrow=none;startFill=0;strokeColor=#FFB570;entryX=1;entryY=0.25;entryDx=0;entryDy=0;" parent="ATTF58zO77-h0KhkHWtb-1" target="36k0eRTxnHQfR-YIVAF0-10" edge="1">
          <mxGeometry relative="1" as="geometry">
            <mxPoint x="420" y="535" as="sourcePoint" />
          </mxGeometry>
        </mxCell>
        <mxCell id="36k0eRTxnHQfR-YIVAF0-19" style="edgeStyle=orthogonalEdgeStyle;curved=1;rounded=0;orthogonalLoop=1;jettySize=auto;html=1;exitX=1;exitY=0.75;exitDx=0;exitDy=0;fontColor=#FFFFFF;startArrow=none;startFill=0;strokeColor=#FFB570;" parent="ATTF58zO77-h0KhkHWtb-1" source="36k0eRTxnHQfR-YIVAF0-10" edge="1">
          <mxGeometry relative="1" as="geometry">
            <mxPoint x="420" y="565" as="targetPoint" />
          </mxGeometry>
        </mxCell>
        <mxCell id="36k0eRTxnHQfR-YIVAF0-10" value="&lt;div&gt;Humidity&lt;/div&gt;&lt;div&gt;Sensor&lt;br&gt;&lt;/div&gt;" style="rounded=1;whiteSpace=wrap;html=1;sketch=0;fontColor=#FEFAE0;strokeColor=#DDA15E;fillColor=#BC6C25;" parent="ATTF58zO77-h0KhkHWtb-1" vertex="1">
          <mxGeometry x="260" y="520" width="120" height="60" as="geometry" />
        </mxCell>
        <mxCell id="36k0eRTxnHQfR-YIVAF0-20" style="edgeStyle=orthogonalEdgeStyle;curved=1;rounded=0;orthogonalLoop=1;jettySize=auto;html=1;exitX=1;exitY=0.25;exitDx=0;exitDy=0;fontColor=#FFFFFF;startArrow=none;startFill=0;strokeColor=#FFB570;entryX=1;entryY=0.25;entryDx=0;entryDy=0;" parent="ATTF58zO77-h0KhkHWtb-1" target="36k0eRTxnHQfR-YIVAF0-11" edge="1">
          <mxGeometry relative="1" as="geometry">
            <mxPoint x="420" y="605" as="sourcePoint" />
          </mxGeometry>
        </mxCell>
        <mxCell id="36k0eRTxnHQfR-YIVAF0-21" style="edgeStyle=orthogonalEdgeStyle;curved=1;rounded=0;orthogonalLoop=1;jettySize=auto;html=1;exitX=1;exitY=0.75;exitDx=0;exitDy=0;fontColor=#FFFFFF;startArrow=none;startFill=0;strokeColor=#FFB570;" parent="ATTF58zO77-h0KhkHWtb-1" source="36k0eRTxnHQfR-YIVAF0-11" edge="1">
          <mxGeometry relative="1" as="geometry">
            <mxPoint x="420" y="635" as="targetPoint" />
          </mxGeometry>
        </mxCell>
        <mxCell id="36k0eRTxnHQfR-YIVAF0-11" value="&lt;div&gt;Ambient lighting&lt;/div&gt;&lt;div&gt;Sensor&lt;br&gt;&lt;/div&gt;" style="rounded=1;whiteSpace=wrap;html=1;sketch=0;fontColor=#FEFAE0;strokeColor=#DDA15E;fillColor=#BC6C25;" parent="ATTF58zO77-h0KhkHWtb-1" vertex="1">
          <mxGeometry x="260" y="590" width="120" height="60" as="geometry" />
        </mxCell>
        <mxCell id="36k0eRTxnHQfR-YIVAF0-15" value="" style="shape=link;html=1;rounded=0;fontColor=#FFFFFF;startArrow=none;startFill=0;strokeColor=#FFB570;curved=1;entryX=0.5;entryY=0;entryDx=0;entryDy=0;exitX=0.5;exitY=1;exitDx=0;exitDy=0;" parent="ATTF58zO77-h0KhkHWtb-1" source="36k0eRTxnHQfR-YIVAF0-6" target="36k0eRTxnHQfR-YIVAF0-6" edge="1">
          <mxGeometry width="100" relative="1" as="geometry">
            <mxPoint x="400" y="549.5" as="sourcePoint" />
            <mxPoint x="500" y="549.5" as="targetPoint" />
          </mxGeometry>
        </mxCell>
        <mxCell id="36k0eRTxnHQfR-YIVAF0-23" style="edgeStyle=orthogonalEdgeStyle;curved=1;rounded=0;orthogonalLoop=1;jettySize=auto;html=1;exitX=0;exitY=0.25;exitDx=0;exitDy=0;fontColor=#FFFFFF;startArrow=none;startFill=0;strokeColor=#FFB570;" parent="ATTF58zO77-h0KhkHWtb-1" source="36k0eRTxnHQfR-YIVAF0-22" edge="1">
          <mxGeometry relative="1" as="geometry">
            <mxPoint x="420" y="525" as="targetPoint" />
          </mxGeometry>
        </mxCell>
        <mxCell id="36k0eRTxnHQfR-YIVAF0-24" style="edgeStyle=orthogonalEdgeStyle;curved=1;rounded=0;orthogonalLoop=1;jettySize=auto;html=1;exitX=0;exitY=0.75;exitDx=0;exitDy=0;fontColor=#FFFFFF;startArrow=none;startFill=0;strokeColor=#FFB570;entryX=0;entryY=0.75;entryDx=0;entryDy=0;" parent="ATTF58zO77-h0KhkHWtb-1" target="36k0eRTxnHQfR-YIVAF0-22" edge="1">
          <mxGeometry relative="1" as="geometry">
            <mxPoint x="420" y="575" as="sourcePoint" />
          </mxGeometry>
        </mxCell>
        <mxCell id="36k0eRTxnHQfR-YIVAF0-22" value="&lt;div&gt;Extension&lt;/div&gt;&lt;div&gt;interface&lt;br&gt;&lt;/div&gt;" style="rounded=1;whiteSpace=wrap;html=1;sketch=0;fontColor=#FEFAE0;strokeColor=#DDA15E;fillColor=#BC6C25;" parent="ATTF58zO77-h0KhkHWtb-1" vertex="1">
          <mxGeometry x="460" y="500" width="120" height="100" as="geometry" />
        </mxCell>
        <mxCell id="36k0eRTxnHQfR-YIVAF0-25" value="&lt;div&gt;I2C&lt;/div&gt;&lt;div&gt;bus&lt;br&gt;&lt;/div&gt;" style="text;html=1;strokeColor=none;fillColor=none;align=center;verticalAlign=middle;whiteSpace=wrap;rounded=0;labelBackgroundColor=#BC6C25;fontColor=#FFFFFF;" parent="ATTF58zO77-h0KhkHWtb-1" vertex="1">
          <mxGeometry x="410" y="430" width="60" height="30" as="geometry" />
        </mxCell>
        <mxCell id="36k0eRTxnHQfR-YIVAF0-27" value="&lt;div&gt;Power&lt;/div&gt;&lt;div&gt;Adapter&lt;br&gt;&lt;/div&gt;" style="rounded=1;whiteSpace=wrap;html=1;sketch=0;fontColor=#FEFAE0;strokeColor=#DDA15E;fillColor=#BC6C25;" parent="ATTF58zO77-h0KhkHWtb-1" vertex="1">
          <mxGeometry x="620" y="430" width="80" height="120" as="geometry" />
        </mxCell>
        <mxCell id="36k0eRTxnHQfR-YIVAF0-28" value="Battery" style="rounded=1;whiteSpace=wrap;html=1;sketch=0;fontColor=#FEFAE0;strokeColor=#DDA15E;fillColor=#BC6C25;" parent="ATTF58zO77-h0KhkHWtb-1" vertex="1">
          <mxGeometry x="620" y="565" width="80" height="110" as="geometry" />
        </mxCell>
        <mxCell id="36k0eRTxnHQfR-YIVAF0-29" value="" style="group" parent="ATTF58zO77-h0KhkHWtb-1" vertex="1" connectable="0">
          <mxGeometry x="300" y="170" width="360" height="200" as="geometry" />
        </mxCell>
        <mxCell id="ATTF58zO77-h0KhkHWtb-2" value="" style="rounded=1;whiteSpace=wrap;html=1;sketch=0;fontColor=#FEFAE0;strokeColor=#DDA15E;fillColor=#BC6C25;" parent="36k0eRTxnHQfR-YIVAF0-29" vertex="1">
          <mxGeometry width="360" height="200" as="geometry" />
        </mxCell>
        <mxCell id="ATTF58zO77-h0KhkHWtb-3" value="ESP 32 WROOM" style="rounded=1;whiteSpace=wrap;html=1;sketch=0;fontColor=#FEFAE0;strokeColor=#DDA15E;fillColor=#BC6C25;" parent="36k0eRTxnHQfR-YIVAF0-29" vertex="1">
          <mxGeometry x="190" y="60" width="150" height="100" as="geometry" />
        </mxCell>
        <mxCell id="ATTF58zO77-h0KhkHWtb-4" value="Devboard" style="text;html=1;strokeColor=none;fillColor=none;align=center;verticalAlign=middle;whiteSpace=wrap;rounded=0;sketch=0;fontColor=#FEFAE0;" parent="36k0eRTxnHQfR-YIVAF0-29" vertex="1">
          <mxGeometry x="140" y="10" width="60" height="30" as="geometry" />
        </mxCell>
        <mxCell id="36k0eRTxnHQfR-YIVAF0-5" style="edgeStyle=orthogonalEdgeStyle;curved=1;rounded=0;orthogonalLoop=1;jettySize=auto;html=1;exitX=1;exitY=0.5;exitDx=0;exitDy=0;entryX=0;entryY=0.5;entryDx=0;entryDy=0;strokeColor=#FFB570;startArrow=classic;startFill=1;" parent="36k0eRTxnHQfR-YIVAF0-29" source="ATTF58zO77-h0KhkHWtb-5" target="ATTF58zO77-h0KhkHWtb-3" edge="1">
          <mxGeometry relative="1" as="geometry" />
        </mxCell>
        <mxCell id="ATTF58zO77-h0KhkHWtb-5" value="&lt;div&gt;Debugging / flashing&lt;/div&gt;&lt;div&gt;hardware&lt;br&gt;&lt;/div&gt;" style="rounded=1;whiteSpace=wrap;html=1;sketch=0;fontColor=#FEFAE0;strokeColor=#DDA15E;fillColor=#BC6C25;" parent="36k0eRTxnHQfR-YIVAF0-29" vertex="1">
          <mxGeometry x="20" y="40" width="120" height="60" as="geometry" />
        </mxCell>
        <mxCell id="36k0eRTxnHQfR-YIVAF0-2" style="edgeStyle=orthogonalEdgeStyle;rounded=0;orthogonalLoop=1;jettySize=auto;html=1;exitX=1;exitY=0.5;exitDx=0;exitDy=0;entryX=0;entryY=0.5;entryDx=0;entryDy=0;curved=1;strokeColor=#FFB570;startArrow=none;startFill=0;" parent="36k0eRTxnHQfR-YIVAF0-29" source="ATTF58zO77-h0KhkHWtb-6" target="ATTF58zO77-h0KhkHWtb-3" edge="1">
          <mxGeometry relative="1" as="geometry" />
        </mxCell>
        <mxCell id="ATTF58zO77-h0KhkHWtb-6" value="Power supply" style="rounded=1;whiteSpace=wrap;html=1;sketch=0;fontColor=#FEFAE0;strokeColor=#DDA15E;fillColor=#BC6C25;" parent="36k0eRTxnHQfR-YIVAF0-29" vertex="1">
          <mxGeometry x="20" y="120" width="120" height="60" as="geometry" />
        </mxCell>
        <mxCell id="ATTF58zO77-h0KhkHWtb-8" style="edgeStyle=orthogonalEdgeStyle;curved=0;rounded=1;sketch=0;orthogonalLoop=1;jettySize=auto;html=1;exitX=0.5;exitY=1;exitDx=0;exitDy=0;fontColor=#FEFAE0;strokeColor=#DDA15E;fillColor=#BC6C25;" parent="36k0eRTxnHQfR-YIVAF0-29" source="ATTF58zO77-h0KhkHWtb-2" target="ATTF58zO77-h0KhkHWtb-2" edge="1">
          <mxGeometry relative="1" as="geometry" />
        </mxCell>
        <mxCell id="rFohdZ7mBo2oBKVj2_Ob-0" value="" style="rounded=1;whiteSpace=wrap;html=1;fillColor=none;strokeColor=#FF0000;strokeWidth=3;" vertex="1" parent="ATTF58zO77-h0KhkHWtb-1">
          <mxGeometry x="610" y="420" width="100" height="260" as="geometry" />
        </mxCell>
        <mxCell id="rFohdZ7mBo2oBKVj2_Ob-1" value="&lt;div&gt;&lt;span style=&quot;background-color: transparent&quot;&gt;&lt;font color=&quot;#FFFFFF&quot;&gt;Not included in&lt;/font&gt;&lt;/span&gt;&lt;/div&gt;&lt;div&gt;&lt;span style=&quot;background-color: transparent&quot;&gt;&lt;font color=&quot;#FFFFFF&quot;&gt;minimal working version!&lt;br&gt;&lt;/font&gt;&lt;/span&gt;&lt;/div&gt;&lt;div&gt;&lt;span style=&quot;background-color: transparent&quot;&gt;&lt;/span&gt;&lt;/div&gt;" style="shape=callout;whiteSpace=wrap;html=1;perimeter=calloutPerimeter;strokeColor=#FF0000;strokeWidth=3;fillColor=#BC6C25;position2=0;" vertex="1" parent="ATTF58zO77-h0KhkHWtb-1">
          <mxGeometry x="690" y="330" width="120" height="90" as="geometry" />
        </mxCell>
      </root>
    </mxGraphModel>
  </diagram>
</mxfile>
